<svg xmlns="http://www.w3.org/2000/svg" width="430" height="430" style="width:100%;height:100%;transform:translate3d(0,0,0);content-visibility:visible" viewBox="0 0 430 430"><defs><clipPath id="e"><path d="M0 0h430v430H0z"/></clipPath><clipPath id="h"><path d="M0 0h430v430H0z"/></clipPath><clipPath id="f"><path d="M0 0h430v430H0z"/></clipPath><filter id="a" width="100%" height="100%" x="0%" y="0%" filterUnits="objectBoundingBox"><feComponentTransfer in="SourceGraphic"><feFuncA tableValues="1.0 0.0" type="table"/></feComponentTransfer></filter><filter id="c" width="100%" height="100%" x="0%" y="0%" filterUnits="objectBoundingBox"><feComponentTransfer in="SourceGraphic"><feFuncA tableValues="1.0 0.0" type="table"/></feComponentTransfer></filter><path id="d" fill="#2CA58D" d="M55.796 118.149s-32.521 93.136-51.185 71.946c-10.355-11.753-13.566-43.584-14.378-69.587-.85 25.92-4.091 57.42-14.378 69.106-18.656 21.183-31.192-71.954-31.192-71.954-17.754-7.151-23.522-26.438-18.484-43.854-17.423 5.031-36.711-.737-43.862-18.491 0 0-11.129-22.529 10.054-41.185C-95.973 3.858-64.571.609-38.681-.241c-25.98-.82-57.683-4.038-69.414-14.37-21.19-18.664-10.054-41.185-10.054-41.185 7.144-17.761 26.431-23.529 43.862-18.491-5.038-17.431.73-36.718 18.491-43.862 0 0 14.521-87.136 33.185-65.946 10.332 11.731 13.55 43.434 14.37 69.414.85-25.89 4.099-57.293 14.371-68.948 18.656-21.183 49.185 65.946 49.185 65.946 17.754 7.151 23.522 26.439 18.491 43.862 17.416-5.038 36.703.73 43.854 18.484 0 0 11.137 22.537-10.046 41.193C95.928-3.857 64.428-.617 38.508.233c26.003.812 57.834 4.023 69.587 14.378 21.19 18.664 10.054 41.185 10.054 41.185-7.144 17.761-26.431 23.529-43.862 18.491 5.038 17.431-.73 36.718-18.491 43.862" style="display:block" transform="translate(190.293 194.957)"/><path id="b" style="display:none"/><mask id="i" mask-type="alpha"><g filter="url(#a)"><path fill="#fff" d="M0 0h430v430H0z" opacity="0"/><use xmlns:ns1="http://www.w3.org/1999/xlink" ns1:href="#b"/></g></mask><mask id="g" mask-type="alpha"><g filter="url(#c)"><path fill="#fff" d="M0 0h430v430H0z" opacity="0"/><use xmlns:ns2="http://www.w3.org/1999/xlink" ns2:href="#d"/></g></mask></defs><g clip-path="url(#e)"><g clip-path="url(#f)" style="display:block"><path fill="none" stroke="#2CA58D" stroke-linecap="round" stroke-linejoin="round" stroke-width="7" d="M-99.599-85.927s39.047 48.018 48.098 57.323C-30.577-7.094 12.13 30.578 65.527 44.189" class="primary" style="display:block" transform="translate(315.107 313.433)"/><path fill="#2CA58D" d="M55.796 118.149s-22.521 11.136-41.185-10.054C4.256 96.342 1.045 64.511.233 38.508c-.85 25.92-4.091 57.42-14.378 69.106-18.656 21.183-41.192 10.046-41.192 10.046-17.754-7.151-23.522-26.438-18.484-43.854-17.423 5.031-36.711-.737-43.862-18.491 0 0-11.129-22.529 10.054-41.185C-95.973 3.858-64.571.609-38.681-.241c-25.98-.82-57.683-4.038-69.414-14.37-21.19-18.664-10.054-41.185-10.054-41.185 7.144-17.761 26.431-23.529 43.862-18.491-5.038-17.431.73-36.718 18.491-43.862 0 0 22.521-11.136 41.185 10.054C-4.279-96.364-1.061-64.661-.241-38.681c.85-25.89 4.099-57.292 14.371-68.948 18.656-21.183 41.185-10.054 41.185-10.054 17.754 7.151 23.522 26.439 18.491 43.862 17.416-5.038 36.703.73 43.854 18.484 0 0 11.137 22.536-10.046 41.192C95.928-3.858 64.428-.617 38.508.233c26.003.812 57.834 4.023 69.587 14.378 21.19 18.664 10.054 41.185 10.054 41.185-7.144 17.761-26.431 23.529-43.862 18.491 5.038 17.431-.73 36.718-18.491 43.862" class="primary" style="display:block" transform="translate(175.293 194.957)"/><g mask="url(#g)" opacity=".5" style="mix-blend-mode:multiply;display:block"><path fill="#2CA58D" d="M231.089 313.106s-22.521 11.136-41.185-10.054c-10.355-11.753-13.566-43.584-14.378-69.587-.85 25.92-4.091 57.42-14.378 69.106-18.656 21.183-41.192 10.046-41.192 10.046-17.754-7.151-23.522-26.438-18.484-43.854-17.423 5.031-36.711-.737-43.862-18.491 0 0-11.129-22.529 10.054-41.185 11.656-10.272 43.058-13.521 68.948-14.371-25.98-.82-57.683-4.038-69.414-14.37-21.19-18.664-10.054-41.185-10.054-41.185 7.144-17.761 26.431-23.529 43.862-18.491-5.038-17.431.73-36.718 18.491-43.862 0 0 22.521-11.136 41.185 10.054 10.332 11.731 13.55 43.434 14.37 69.414.85-25.89 4.099-57.292 14.371-68.948 18.656-21.183 41.185-10.054 41.185-10.054 17.754 7.151 23.522 26.439 18.491 43.862 17.416-5.038 36.703.73 43.854 18.484 0 0 11.137 22.536-10.046 41.192-11.686 10.287-43.186 13.528-69.106 14.378 26.003.812 57.834 4.023 69.587 14.378 21.19 18.664 10.054 41.185 10.054 41.185-7.144 17.761-26.431 23.529-43.862 18.491 5.038 17.431-.73 36.718-18.491 43.862" class="primary" opacity="1"/></g></g><g clip-path="url(#h)" style="display:none"><path fill="none" class="primary" style="display:none"/><path class="primary" style="display:none"/><g mask="url(#i)" style="mix-blend-mode:multiply;display:none"><path class="primary"/></g></g></g></svg>